ply
format ascii 1.0
comment Created in Blender version 4.0.2
element vertex 64
property float x
property float y
property float z
property uchar red
property uchar green
property uchar blue
property uchar alpha
end_header
0 0 0 0 0 0 255
0 0 1 0 0 64 255
0 0 2 0 0 128 255
0 0 3 0 0 192 255
0 1 0 0 64 0 255
0 1 1 0 64 64 255
0 1 2 0 64 128 255
0 1 3 0 64 192 255
0 2 0 0 128 0 255
0 2 1 0 128 64 255
0 2 2 0 128 128 255
0 2 3 0 128 192 255
0 3 0 0 192 0 255
0 3 1 0 192 64 255
0 3 2 0 192 128 255
0 3 3 0 192 192 255
1 0 0 64 0 0 255
1 0 1 64 0 64 255
1 0 2 64 0 128 255
1 0 3 64 0 192 255
1 1 0 64 64 0 255
1 1 1 64 64 64 255
1 1 2 64 64 128 255
1 1 3 64 64 192 255
1 2 0 64 128 0 255
1 2 1 64 128 64 255
1 2 2 64 128 128 255
1 2 3 64 128 192 255
1 3 0 64 192 0 255
1 3 1 64 192 64 255
1 3 2 64 192 128 255
1 3 3 64 192 192 255
2 0 0 128 0 0 255
2 0 1 128 0 64 255
2 0 2 128 0 128 255
2 0 3 128 0 192 255
2 1 0 128 64 0 255
2 1 1 128 64 64 255
2 1 2 128 64 128 255
2 1 3 128 64 192 255
2 2 0 128 128 0 255
2 2 1 128 128 64 255
2 2 2 128 128 128 255
2 2 3 128 128 192 255
2 3 0 128 192 0 255
2 3 1 128 192 64 255
2 3 2 128 192 128 255
2 3 3 128 192 192 255
3 0 0 192 0 0 255
3 0 1 192 0 64 255
3 0 2 192 0 128 255
3 0 3 192 0 192 255
3 1 0 192 64 0 255
3 1 1 192 64 64 255
3 1 2 192 64 128 255
3 1 3 192 64 192 255
3 2 0 192 128 0 255
3 2 1 192 128 64 255
3 2 2 192 128 128 255
3 2 3 192 128 192 255
3 3 0 192 192 0 255
3 3 1 192 192 64 255
3 3 2 192 192 128 255
3 3 3 192 192 192 255
